<svg width="128" height="31" viewBox="0 0 128 31" fill="none" xmlns="http://www.w3.org/2000/svg">
<path d="M40.4622 0H43.202V23.1177C43.2053 23.4559 43.1419 23.7913 43.0155 24.1039C42.8891 24.4164 42.7024 24.6997 42.4666 24.9368C42.2414 25.1828 41.9686 25.3782 41.6656 25.5106C41.3626 25.643 41.036 25.7095 40.7066 25.7058H38.2087V24.2351C36.6909 25.172 34.953 25.6703 33.1801 25.677C31.8616 25.6967 30.5532 25.44 29.3355 24.9225C28.1178 24.405 27.0167 23.6379 26.1002 22.6683C25.1664 21.717 24.4258 20.5863 23.9209 19.3412C23.416 18.0962 23.1568 16.7613 23.1582 15.4134C23.1588 14.0683 23.4186 12.7365 23.9226 11.4941C24.4267 10.2518 25.1651 9.12309 26.0958 8.17265C27.0265 7.2222 28.1311 6.46859 29.3467 5.95487C30.5623 5.44115 31.8649 5.17739 33.1801 5.17865C34.9478 5.18184 36.683 5.66445 38.2087 6.57725V2.30696C38.2087 1.69553 38.4461 1.10911 38.8686 0.676543C39.2911 0.243972 39.8643 0.000636905 40.4622 0ZM38.2087 15.5672V15.2524C38.192 14.3678 37.9437 13.5039 37.4897 12.7508C37.0443 12.0038 36.421 11.3845 35.678 10.9509C34.912 10.5116 34.0479 10.2824 33.1697 10.2853C32.2915 10.2882 31.429 10.5233 30.6658 10.9677C29.9068 11.4182 29.2759 12.0635 28.8353 12.8397C28.2763 13.818 28.0504 14.9582 28.1928 16.0819C28.3352 17.2055 28.8381 18.2491 29.6225 19.0493C30.5528 20.0137 31.8195 20.5607 33.1441 20.5702C34.4687 20.5797 35.7427 20.0507 36.686 19.0997C37.1548 18.6425 37.5307 18.095 37.792 17.4888C38.0533 16.8826 38.1949 16.2296 38.2087 15.5672Z" fill="white"/>
<path d="M48.2573 8.1876C50.1394 6.26429 52.6903 5.18232 55.351 5.17872C58.0117 5.17512 60.5653 6.25018 62.4525 8.16838C63.4046 9.1039 64.1585 10.2296 64.6674 11.4755C65.1763 12.7215 65.4294 14.0611 65.4109 15.4113C65.4311 16.7623 65.1805 18.1032 64.6745 19.3514C64.1685 20.5995 63.4179 21.7285 62.4689 22.6686C61.5371 23.6223 60.4307 24.3788 59.2128 24.895C57.995 25.4111 56.6896 25.6768 55.3713 25.6768C54.053 25.6768 52.7477 25.4111 51.5298 24.895C50.312 24.3788 49.2055 23.6223 48.2737 22.6686C47.3243 21.7288 46.5734 20.6 46.0674 19.3517C45.5614 18.1035 45.311 16.7624 45.3318 15.4113C45.307 14.0661 45.554 12.7302 46.0574 11.4872C46.5608 10.2442 47.3097 9.1209 48.2573 8.1876ZM51.8125 19.0664C52.2767 19.5444 52.829 19.9234 53.4375 20.1816C54.0459 20.4398 54.6984 20.5719 55.3571 20.5703C56.0159 20.5687 56.6677 20.4335 57.275 20.1725C57.8823 19.9114 58.4329 19.5298 58.8949 19.0496C59.3682 18.5766 59.7427 18.0103 59.9956 17.3848C60.2484 16.7594 60.3744 16.088 60.3658 15.4113C60.3375 14.0714 59.7971 12.7961 58.8604 11.8588C57.9238 10.9214 56.6654 10.3965 55.3549 10.3965C54.0444 10.3965 52.786 10.9214 51.8493 11.8588C50.9127 12.7961 50.3723 14.0714 50.3439 15.4113C50.3369 16.0909 50.4642 16.765 50.7182 17.3931C50.9722 18.0212 51.3476 18.5903 51.8219 19.0664H51.8125Z" fill="white"/>
<path d="M87.5337 13.3299C87.8543 14.8742 87.8133 16.4741 87.4139 17.9991C87.0507 19.4538 86.3792 20.8091 85.4471 21.969C84.5145 23.1056 83.3542 24.0242 82.0446 24.6629C80.575 25.3942 78.9502 25.7387 77.3175 25.6653C75.6848 25.5919 74.0958 25.1027 72.6947 24.2423V28.2651C72.6985 28.6034 72.6353 28.9389 72.5089 29.2516C72.3825 29.5642 72.1955 29.8475 71.9592 30.0842C71.729 30.3335 71.4504 30.5309 71.1412 30.6637C70.8321 30.7966 70.4992 30.8619 70.164 30.8556H67.6943V5.14258H72.6947V6.58443C73.8975 5.83268 75.2477 5.36151 76.649 5.2045C78.0502 5.04749 79.4681 5.2085 80.8015 5.67606C82.4949 6.22343 84.0133 7.22602 85.198 8.57899C86.3932 9.9099 87.202 11.5551 87.5337 13.3299ZM74.1587 19.0661C74.8647 19.7824 75.7622 20.269 76.7381 20.4645C77.7141 20.6601 78.7248 20.5559 79.6429 20.165C80.5611 19.7742 81.3455 19.1142 81.8975 18.2682C82.4495 17.4222 82.7443 16.428 82.7448 15.411C82.7448 14.0471 82.215 12.739 81.272 11.7746C80.329 10.8102 79.0499 10.2684 77.7163 10.2684C76.3826 10.2684 75.1035 10.8102 74.1605 11.7746C73.2175 12.739 72.6877 14.0471 72.6877 15.411C72.6797 16.0901 72.8059 16.7639 73.0587 17.3919C73.3115 18.02 73.6856 18.5894 74.1587 19.0661Z" fill="white"/>
<path d="M123.04 18.1218H128C128.011 19.4771 127.669 20.8109 127.008 21.986C126.36 23.1506 125.414 24.1127 124.271 24.7687C123.127 25.439 121.83 25.7888 120.511 25.7829C119.661 25.7861 118.817 25.644 118.013 25.3623C116.549 24.8353 115.281 23.8551 114.385 22.5576C113.49 21.2601 113.012 19.7098 113.018 18.1218V0.098663H115.48C115.926 0.0964343 116.363 0.217681 116.747 0.449514C117.129 0.678288 117.447 1.00347 117.67 1.39393C117.896 1.78709 118.014 2.23551 118.011 2.69159V5.31817H128V10.3815H118.011V18.6457C118.137 19.2764 118.488 19.8366 118.996 20.2178C119.503 20.599 120.131 20.7739 120.757 20.7086C121.383 20.6434 121.963 20.3426 122.385 19.8647C122.807 19.3867 123.04 18.7656 123.04 18.1218Z" fill="white"/>
<path d="M15.0518 5.14258V6.58443C13.5262 5.67131 11.7909 5.18868 10.0232 5.18583C8.70684 5.16462 7.40007 5.41815 6.18276 5.9309C4.96544 6.44366 3.86315 7.20489 2.94325 8.16806C1.99333 9.10442 1.24194 10.2306 0.735822 11.4767C0.229704 12.7227 -0.0203235 14.0619 0.00129086 15.411C-0.0194639 16.7621 0.230898 18.1032 0.736908 19.3514C1.24292 20.5996 1.99383 21.7285 2.94325 22.6683C3.85959 23.6381 4.96065 24.4054 6.17838 24.9229C7.39612 25.4404 8.70467 25.697 10.0232 25.677C11.8741 25.6763 13.6874 25.1433 15.2562 24.139C15.4639 24.5826 15.7825 24.9623 16.1797 25.2396C16.5806 25.5279 17.0596 25.6808 17.5496 25.677H20.0592V5.14258H15.0518ZM11.8185 12.3687C11.9407 11.5011 12.6174 10.9268 13.3294 11.1094C14.0414 11.2921 14.5184 12.1187 14.3962 12.9839C14.274 13.849 13.5973 14.4257 12.8853 14.2431C12.1733 14.0604 11.6963 13.2338 11.8185 12.3687ZM8.92585 9.4441C9.565 9.00193 10.4391 9.29511 10.8785 10.0977C11.318 10.9004 11.1582 11.9145 10.519 12.3566C9.87987 12.7988 9.00809 12.508 8.56868 11.703C8.12927 10.898 8.28905 9.90069 8.92585 9.4441ZM5.65727 10.886C6.29642 10.4438 7.17055 10.7346 7.60996 11.5396C8.04937 12.3446 7.88959 13.3563 7.25044 13.7985C6.61129 14.2407 5.73951 13.9499 5.3001 13.1449C4.86069 12.3398 5.02047 11.3425 5.65727 10.8956V10.886ZM6.53375 17.0547C6.16953 17.7035 5.3048 17.8237 4.60221 17.3238C3.89962 16.824 3.62704 15.882 3.99126 15.2452C4.35548 14.6083 5.22021 14.4762 5.9228 14.976C6.62539 15.4759 6.90032 16.4155 6.53375 17.0643V17.0547ZM14.3774 18.7368C13.4939 19.4289 12.1968 18.6311 11.1253 19.0973C10.0397 19.5226 9.64489 21.0198 8.54048 21.1471C7.43607 21.2745 6.59014 20.0465 7.60056 17.8117C8.25851 16.3073 8.07522 15.0193 9.29007 14.481C10.5284 14.0004 11.2733 15.0649 12.7983 15.6825C15.0377 16.5717 15.2609 18.0568 14.3774 18.7465V18.7368Z" fill="white"/>
<path d="M104.534 18.2757C104.024 19.1687 103.252 19.8749 102.328 20.2943C101.406 20.7276 100.376 20.8577 99.3788 20.6668C98.4051 20.4939 97.5014 20.0356 96.7775 19.3475L109.953 13.3134L109.798 12.6165C109.78 12.487 109.75 12.3597 109.706 12.2368C109.627 11.9436 109.526 11.6569 109.405 11.3789C109 10.4325 108.444 9.56128 107.761 8.80038C106.383 7.1413 104.505 5.99892 102.422 5.55381C100.323 5.0633 98.125 5.29562 96.1689 6.21466C94.863 6.80653 93.6964 7.67774 92.7475 8.76961C91.7986 9.86148 91.0895 11.1486 90.668 12.5444C90.2591 13.9201 90.1343 15.3678 90.3015 16.7954C90.4999 18.4913 91.1178 20.1074 92.0967 21.4911C92.9953 22.8005 94.1826 23.8752 95.5628 24.6282C96.9429 25.3811 98.477 25.7912 100.041 25.8251C101.605 25.859 103.155 25.5159 104.565 24.8235C105.975 24.1311 107.206 23.1088 108.158 21.8395C108.948 20.7756 109.53 19.5655 109.871 18.2757H104.534ZM96.2817 12.3041C96.7769 11.6542 97.4231 11.1412 98.1616 10.8118C98.8972 10.4681 99.7041 10.3146 100.511 10.3648C101.305 10.4153 102.077 10.6468 102.772 11.0425L95.2807 14.4669C95.4535 13.6789 95.7954 12.9402 96.2817 12.3041Z" fill="white"/>
</svg>
